<?xml version="1.0" encoding="UTF-8" standalone="no"?>
<svg
   xmlns:dc="http://purl.org/dc/elements/1.1/"
   xmlns:cc="http://creativecommons.org/ns#"
   xmlns:rdf="http://www.w3.org/1999/02/22-rdf-syntax-ns#"
   xmlns:svg="http://www.w3.org/2000/svg"
   xmlns="http://www.w3.org/2000/svg"
   xmlns:sodipodi="http://sodipodi.sourceforge.net/DTD/sodipodi-0.dtd"
   xmlns:inkscape="http://www.inkscape.org/namespaces/inkscape"
   width="386"
   height="512"
   id="svg2"
   sodipodi:version="0.32"
   inkscape:version="0.46"
   sodipodi:docname="logo_uca.svg"
   inkscape:output_extension="org.inkscape.output.svg.inkscape">
  <metadata
     id="metadata89">
    <rdf:RDF>
      <cc:Work
         rdf:about="">
        <dc:format>image/svg+xml</dc:format>
        <dc:type
           rdf:resource="http://purl.org/dc/dcmitype/StillImage" />
      </cc:Work>
    </rdf:RDF>
  </metadata>
  <defs
     id="defs87">
    <inkscape:perspective
       sodipodi:type="inkscape:persp3d"
       inkscape:vp_x="0 : 256 : 1"
       inkscape:vp_y="0 : 1000 : 0"
       inkscape:vp_z="386 : 256 : 1"
       inkscape:persp3d-origin="193 : 170.66667 : 1"
       id="perspective91" />
  </defs>
  <sodipodi:namedview
     inkscape:window-height="750"
     inkscape:window-width="1279"
     inkscape:pageshadow="2"
     inkscape:pageopacity="0.0"
     guidetolerance="10.0"
     gridtolerance="10.0"
     objecttolerance="10.0"
     borderopacity="1.0"
     bordercolor="#666666"
     pagecolor="#ffffff"
     id="base"
     showgrid="false"
     inkscape:zoom="1.0195312"
     inkscape:cx="193"
     inkscape:cy="256"
     inkscape:window-x="0"
     inkscape:window-y="25"
     inkscape:current-layer="svg2"
     showguides="true"
     inkscape:guide-bbox="true">
    <sodipodi:guide
       orientation="0,1"
       position="241.59482,145.1042"
       id="guide2471" />
    <sodipodi:guide
       orientation="0,1"
       position="203.12658,2.080682"
       id="guide3375" />
    <sodipodi:guide
       orientation="0,1"
       position="179.28543,58.605877"
       id="guide3381" />
  </sodipodi:namedview>
  <desc
     id="desc4">wmf2svg</desc>
  <path
     style="fill:#696969;fill-opacity:1;fill-rule:evenodd;stroke:none"
     d="M 131.89717,230.27414 C 127.58745,229.92852 123.73169,227.7775 119.41157,227.49037 C 111.90089,224.46106 104.29297,221.6548 97.186554,217.73117 C 93.949567,216.22082 91.023517,214.03868 88.371577,211.68206 C 86.747947,209.96418 84.156236,209.58041 82.807979,207.48305 C 80.459884,205.26815 78.272797,202.9228 76.364664,200.34384 C 74.244357,198.19224 72.614002,195.62253 70.409846,193.54804 C 68.066029,190.40147 65.191675,187.71326 63.054972,184.38775 C 58.690414,178.67705 54.462347,172.82778 49.746355,167.41084 C 47.877461,166.27995 47.697983,164.45028 47.914711,162.45673 C 47.914711,157.00085 47.914711,151.54497 47.914711,146.0891 C 50.000387,147.99925 51.778082,150.14643 53.478309,152.36794 C 54.927171,154.21881 56.373359,156.06968 57.997215,157.77932 C 59.918065,160.27666 61.873994,162.73275 63.595847,165.39556 C 65.94419,168.54547 68.955817,171.11281 70.810303,174.63072 C 72.360911,176.92389 74.186886,178.98762 75.932678,181.12188 C 78.292364,183.01004 79.692567,185.72401 81.50079,188.02876 C 83.995271,189.21833 84.837911,192.06676 87.052454,193.65764 C 88.71346,195.13939 89.458248,197.40187 91.662231,198.27678 C 93.895073,200.78506 96.567473,202.81042 99.187741,204.82189 C 100.87693,205.88091 102.15871,207.51462 103.91856,208.47817 C 105.22473,210.12838 107.40109,209.90403 108.60125,211.63621 C 110.45308,212.08975 111.89748,213.39355 113.48777,214.27545 C 115.22481,214.8553 116.63735,215.7583 118.26951,216.59782 C 119.69285,217.4669 121.61732,217.75915 123.22718,218.43512 C 124.97299,219.203 126.40157,220.0119 128.3477,220.13746 C 130.50127,221.60143 133.12843,220.80111 135.37782,221.92282 C 137.77438,221.62244 139.88543,223.07808 142.30653,222.62675 C 146.08967,222.42863 150.00565,223.03576 153.70076,222.304 C 156.05643,221.36888 158.76285,222.56001 161.05154,221.21889 C 163.4873,221.69355 165.60617,220.21929 168.01282,220.51492 C 170.1715,219.78412 172.30183,218.94413 174.58882,219.03147 C 180.50475,216.99129 186.5168,215.19287 192.31345,212.86757 C 190.79998,214.90061 188.05668,214.9447 186.05467,216.35529 C 183.78359,216.60126 182.76541,218.88641 180.49843,219.13905 C 178.17642,220.29661 175.5688,220.84723 173.56908,222.62675 C 169.1487,224.18515 164.83774,226.00963 160.38095,227.49037 C 157.61093,226.87724 155.45367,229.31837 152.74908,228.86624 C 150.84178,229.68796 148.77875,229.54804 146.85787,230.27414 C 144.50145,230.12715 142.36296,231.38118 139.96172,230.94608 C 137.26695,230.7792 134.43116,231.42487 131.89717,230.27414 z"
     id="polygon6" />
  <path
     style="fill:#696969;fill-opacity:1;fill-rule:evenodd;stroke:none"
     d="M 139.56097,210.78773 C 136.2116,210.53255 133.18357,208.94577 129.82155,208.7079 C 124.11306,206.0702 117.927,203.7145 112.88154,199.85739 C 108.95549,197.93506 106.23405,194.33855 102.68128,191.92584 C 100.27978,188.24296 96.438697,185.63589 94.440353,181.57416 C 91.176566,180.05347 90.525615,175.92146 87.479073,173.92679 C 83.685853,168.9713 79.413842,164.28905 75.593573,159.23338 C 71.851881,154.68161 67.683771,150.46602 64.19698,145.70182 C 61.521263,143.41049 60.393483,139.77475 57.320737,137.98512 C 54.638576,133.47557 50.406799,129.82868 47.914711,125.38362 C 47.914711,118.83589 47.914711,112.28816 47.914711,105.74043 C 52.503629,111.90821 57.656429,117.58065 62.051599,123.92022 C 65.306833,128.03033 68.642251,132.06903 71.969786,136.11584 C 76.558635,140.86661 80.396666,146.29147 84.487322,151.44258 C 88.176062,155.60962 91.310035,160.26114 95.04326,164.40888 C 97.501995,167.69863 100.91903,170.22971 102.74281,173.92679 C 105.43611,175.65932 107.49175,178.02447 109.49919,180.46893 C 111.62757,183.73157 115.6951,185.1152 117.82741,188.08614 C 121.50045,189.21381 123.96687,192.46417 127.59057,193.3812 C 130.42397,194.49612 133.14103,195.67909 136.08032,196.8689 C 139.1303,197.19118 142.02641,198.1408 145.11722,198.27678 C 149.96726,198.30306 154.82552,198.50188 159.51548,197.48204 C 164.85593,196.82673 169.68436,194.0499 174.70776,192.3789 C 178.46485,189.2962 183.80679,188.56811 186.7572,184.35793 C 193.2158,180.23374 196.45658,173.06109 200.64783,166.95137 C 202.23082,163.53981 204.64961,160.56717 205.00351,156.71668 C 207.04625,151.58165 207.80972,145.91121 208.27969,140.44482 C 208.68504,133.31213 207.68984,126.20186 205.79519,119.34821 C 203.14582,112.42189 200.28209,105.26304 195.30519,99.715001 C 192.97203,96.988896 191.39466,93.421324 188.58852,91.364002 C 186.51309,87.686064 182.56792,85.675565 181.20094,81.390442 C 175.10744,75.743703 170.41812,68.893225 164.94644,62.707211 C 161.22965,58.349283 157.41447,54.081273 153.46808,49.923708 C 151.63086,46.902944 149.09952,44.574955 146.53874,42.276344 C 143.0983,37.161066 138.35511,33.173467 134.53435,28.389588 C 132.04151,25.423008 129.35385,22.630924 127.04343,19.507566 C 127.04343,13.012104 127.04343,6.5166408 127.04343,0.021178 C 130.22665,4.0635707 133.76908,7.801844 136.85331,11.930812 C 144.51632,20.453738 151.78455,29.380453 159.4822,37.931035 C 168.30081,48.178027 177.35558,58.213724 186.22755,68.348765 C 191.14309,73.843358 195.09336,80.188179 200.22395,85.490116 C 205.93626,92.687533 210.52216,100.65013 215.20905,108.5242 C 217.05156,115.41822 220.65931,121.80323 220.92174,129.09363 C 221.7617,135.82042 221.75759,142.76395 221.01225,149.49053 C 220.26835,156.72785 217.66963,163.63729 214.9344,170.31755 C 211.78756,178.11986 205.58825,183.9737 200.64783,190.62939 C 196.10494,192.96659 193.28041,197.39792 188.62433,199.55496 C 184.22395,202.55845 179.19707,204.65906 174.2416,206.52102 C 169.39884,207.81647 164.83393,210.34529 159.67845,210.0838 C 156.88727,211.02545 153.88569,211.12861 150.95229,211.49168 C 147.7704,211.80013 144.80708,211.18441 141.79196,210.78773 C 141.0483,210.78773 140.30463,210.78773 139.56097,210.78773 z"
     id="polygon8" />
  <path
     style="fill:#696969;fill-opacity:1;fill-rule:evenodd;stroke:none"
     d="M 146.49033,187.14169 C 144.28957,186.08069 141.99114,185.93942 139.85635,184.86952 C 137.7358,183.61563 135.60622,183.58126 133.62775,182.08924 C 130.7687,181.37121 128.56603,179.31338 126.07501,177.788 C 124.18117,176.45743 122.27796,175.14326 120.51875,173.62835 C 118.53489,172.40222 117.33749,170.36937 115.56148,168.97711 C 114.09676,167.00704 112.16463,165.39112 110.95851,163.2055 C 106.59549,158.31672 102.51987,153.20615 98.596042,147.9733 C 93.234816,141.68654 87.731473,135.51149 82.903521,128.80762 C 78.619392,124.04485 74.711392,118.98675 70.840646,113.90132 C 65.456606,107.63414 60.001581,101.41766 55.149331,94.734592 C 52.830094,91.749436 49.758118,89.033235 47.914711,85.864408 C 47.914711,79.040195 47.914711,72.215982 47.914711,65.391769 C 53.482573,72.896067 60.055826,79.568375 65.500978,87.175149 C 69.164295,92.259228 74.292125,96.054171 77.734315,101.33509 C 83.243295,108.49874 88.761588,115.65226 94.773378,122.39835 C 97.921733,126.60581 101.18201,130.69078 104.75881,134.52317 C 112.82964,144.79005 120.64594,155.29178 128.9235,165.37497 C 133.42136,168.32561 138.43996,170.65379 143.43131,172.51891 C 146.11134,172.04046 148.27844,173.68685 150.95498,173.22285 C 153.36977,173.57843 155.41578,172.58698 157.70259,172.25918 C 160.05894,171.90109 162.20503,171.1557 164.28469,169.86202 C 166.98732,168.62474 168.83509,166.18707 171.49347,164.87154 C 174.12413,162.4856 176.51624,159.92882 177.72031,156.52022 C 179.33408,154.66212 180.3179,152.10343 181.20094,149.85911 C 181.39372,147.61604 181.91547,145.46067 182.27291,143.25123 C 182.95579,140.16126 182.38865,136.78288 182.57404,133.57812 C 181.54788,131.33133 181.45963,128.87994 180.81747,126.55562 C 179.54165,124.47242 179.78932,122.00506 178.23455,119.98595 C 177.48734,117.39675 174.80692,116.70418 174.19611,113.98709 C 172.72696,111.41278 170.28542,109.49031 168.92692,106.76486 C 165.02874,103.20236 163.2355,97.904551 158.97592,94.637352 C 157.33381,91.754439 155.28572,89.110371 152.51306,87.312544 C 148.97692,82.417198 144.56923,78.218985 140.74307,73.551694 C 138.96652,71.457805 136.35691,70.388294 135.07999,67.877103 C 132.46931,65.389821 130.4783,62.408893 127.97641,59.829409 C 126.11248,57.248877 127.44581,53.689592 127.04343,50.66165 C 127.04343,46.761752 127.04343,42.861854 127.04343,38.961956 C 129.71161,42.570548 132.68583,45.889963 135.51689,49.341374 C 138.32644,52.42863 141.35369,55.327806 143.90319,58.639731 C 148.31097,63.356247 151.94908,68.84866 157.19071,72.767392 C 159.45805,75.05419 161.35632,77.71175 163.66315,79.986652 C 165.91703,83.003966 168.69104,85.571922 170.98194,88.557251 C 174.42271,91.90699 176.75225,96.215332 180.30492,99.469326 C 183.25427,102.77253 185.00072,106.82157 187.64623,110.31022 C 189.12987,113.50554 191.48701,116.15627 193.01035,119.33899 C 195.3774,122.63188 195.9569,126.75743 197.16719,130.51206 C 197.42489,133.05563 198.24002,135.46785 197.86971,138.15941 C 198.08581,141.2903 197.03788,144.21348 196.46468,147.21466 C 196.78055,149.9365 194.63713,152.13655 194.95664,154.83988 C 194.00253,157.92517 191.92091,160.43058 190.90842,163.49567 C 189.1036,165.20463 188.54933,167.63122 186.88451,169.4858 C 185.08274,173.3509 181.08696,175.01017 178.42281,178.08644 C 175.94349,178.76926 174.25055,180.50681 171.9719,181.4119 C 169.93388,181.75155 168.56621,183.28505 166.60779,183.65398 C 164.97483,184.82594 162.89319,184.9979 161.05154,185.73381 C 159.36556,186.91931 156.75188,185.89478 155.10559,187.14169 C 152.23383,187.14169 149.36208,187.14169 146.49033,187.14169 z"
     id="polygon10" />
  <polygon
     points="147.863419,161.383835   147.192841,161.383835 146.490326,161.383835 145.787796,160.711884 145.117218,160.711884   144.414703,160.711884 143.712204,160.711884 143.009674,160.007935 142.339096,159.304001   141.636581,159.304001 140.934067,158.632050 143.712204,158.632050 146.490326,157.224182   149.268448,156.520218 151.344070,155.144348 153.419678,154.440414 154.824707,153.064514   156.197800,151.656631 157.602829,150.280746 158.305344,149.576797 158.975922,148.168930   159.678452,146.793030 159.678452,144.713196 160.380951,143.305328 159.678452,141.929443   159.678452,140.521545 159.678452,139.145676 158.975922,137.737778 158.305344,135.657959   157.602829,134.282074 156.900314,132.874191 156.197800,131.498306 154.824707,129.386490   154.122177,128.010590 152.749084,126.634705 151.344070,124.522881 150.641541,123.146996   149.268448,121.739105 147.863419,120.363220 146.490326,118.955338 143.712204,116.171570   141.636581,113.387802 140.934067,112.011909 139.560974,111.307968 138.858459,110.636024   138.155930,109.228149 137.453430,108.524200 136.782837,107.852257 135.377823,106.444374   134.675293,105.740425 134.004715,104.364540 133.302200,103.660606 131.897171,102.956665   131.226593,101.580780 130.524078,100.876831 129.821548,100.172897 128.448456,98.797005   127.745941,98.093063 127.043434,96.717178 127.043434,95.309296 127.043434,94.637352   127.043434,93.229469 127.043434,91.853577 127.043434,90.445694 127.043434,89.069809   127.043434,87.661926 127.043434,86.957985 127.043434,85.582100 127.043434,84.174217   127.043434,82.798325 127.043434,81.390442 127.043434,80.014557 127.043434,79.310616   127.043434,77.934731 127.043434,76.526848 129.119049,79.310616 131.897171,82.094391   134.004715,84.878159 136.080322,87.661926 138.155930,90.445694 140.231552,92.525528   142.339096,95.309296 144.414703,97.389122 146.490326,100.172897 148.565933,102.284721   150.641541,105.068489 152.749084,107.148315 154.824707,109.228149 156.900314,112.011909   157.602829,112.715858 158.975922,114.091743 159.678452,115.499626 160.380951,116.171570   161.051544,117.579453 162.456573,118.955338 163.159088,120.363220 163.829666,121.067162   164.532181,122.443047 165.937210,123.850929 166.607788,124.522881 167.310318,125.930756   168.012817,128.010590 168.715332,130.090424 169.385925,131.498306 170.088425,133.578125   170.790955,135.657959 170.790955,137.065842 171.493469,139.145676 171.493469,140.521545   171.493469,141.929443 171.493469,143.305328 171.493469,145.385162 170.790955,146.089096   170.790955,147.496979 170.088425,148.872864 169.385925,150.280746 168.715332,151.656631   168.012817,152.360580 167.310318,153.736450 165.937210,154.440414 165.234695,155.144348   163.829666,155.848282 163.159088,157.224182 161.754059,157.928116 160.380951,157.928116   158.975922,158.632050 157.602829,159.304001 156.197800,160.007935 154.122177,160.007935   152.749084,160.711884 151.344070,160.711884 149.268448,161.383835 147.863419,161.383835 "
     style="fill-opacity:1.0; fill-rule:evenodd; fill:dimgray; stroke:none"
     id="polygon12" />
  <path
     style="fill:#696969;fill-opacity:1;fill-rule:evenodd;stroke:none"
     d="M 252.6978,230.27414 C 257.27833,229.69387 261.63287,228.08857 266.13583,227.16982 C 273.16078,224.85952 279.87739,221.73177 286.52797,218.53337 C 291.38044,215.91661 295.58584,212.23522 300.13244,209.14458 C 303.59468,205.53295 307.47393,202.21359 310.60588,198.35063 C 311.6437,195.50404 314.38355,193.89764 315.86026,191.30136 C 319.7055,187.62654 322.30468,182.87304 326.08124,179.10909 C 327.99338,176.91224 328.98678,174.03767 331.4146,172.2597 C 333.04436,169.92512 334.41097,167.38463 336.71219,165.57547 C 336.71219,159.08001 336.71219,152.58455 336.71219,146.0891 C 334.66468,148.1802 333.18465,150.72497 330.89099,152.61586 C 328.4862,155.17764 327.47856,159.05071 324.19464,160.71188 C 321.57367,164.89829 318.31422,168.6274 315.62546,172.75781 C 313.63471,174.60095 312.27414,176.95079 310.45287,178.92508 C 309.26161,180.74157 308.24431,182.73698 306.1528,183.65398 C 303.74678,188.18747 299.62705,191.317 296.2578,195.06663 C 294.93628,197.58765 292.05155,198.56086 290.37653,200.83818 C 287.99115,203.82814 284.33934,205.17248 281.85217,208.00397 C 280.0724,208.91984 278.926,210.2389 276.99841,210.78773 C 275.67626,212.49758 273.60068,212.08397 272.24823,213.8716 C 270.58161,214.42376 269.03475,215.42353 267.49944,216.13642 C 265.96979,217.32786 264.13229,217.32343 262.63457,218.20537 C 260.78125,218.07748 259.61322,220.31906 257.55154,219.84299 C 255.40207,220.56601 253.28399,221.41278 251.00699,221.32501 C 249.11415,222.30005 246.93983,221.54897 245.06593,222.62675 C 240.58851,222.47102 236.03266,222.94412 231.60619,222.37992 C 228.99665,221.34963 226.06849,222.59195 223.54343,221.21889 C 221.14381,221.52879 219.04121,220.0382 216.61407,220.51492 C 214.45052,219.8035 212.3245,218.94524 210.03809,219.03147 C 204.0742,217.11588 198.19067,215.00381 192.31345,212.86757 C 194.81506,215.0112 198.14318,215.66444 200.88445,217.29632 C 202.44824,219.06774 204.99497,219.41661 207.09502,220.35883 C 209.3042,220.50166 210.38126,222.48971 212.33259,223.03944 C 216.3407,224.43483 220.2687,226.01572 224.24594,227.49037 C 227.0466,227.05595 229.45159,229.07688 232.19503,228.97383 C 234.08499,229.95332 236.25973,229.20175 238.13658,230.27414 C 240.2493,230.19422 242.16469,231.3645 244.33083,230.94608 C 247.1226,230.76321 250.06974,231.45475 252.6978,230.27414 z"
     id="polygon14" />
  <path
     style="fill:#696969;fill-opacity:1;fill-rule:evenodd;stroke:none"
     d="M 245.06593,210.78773 C 248.54838,210.38306 251.81746,209.05678 255.2626,208.46282 C 258.3317,207.10822 261.57363,206.42059 264.51282,204.51625 C 267.79686,203.39754 270.03353,201.21116 272.63157,199.40305 C 275.2435,197.3931 278.30209,195.62592 280.268,193.14069 C 283.8076,190.84992 285.72978,186.93159 288.81292,184.05534 C 292.63271,179.77672 295.78088,175.14648 299.89401,171.14302 C 301.06779,167.80865 304.31244,166.56323 305.8908,163.54303 C 309.05015,159.62494 312.20832,155.71218 315.57619,151.9733 C 318.34186,149.09631 320.32918,145.57703 323.02341,142.63945 C 327.12081,138.31809 330.86284,133.72309 334.28489,128.83158 C 338.0295,126.14703 336.36633,121.49841 336.71219,117.57945 C 336.71219,113.63311 336.71219,109.68677 336.71219,105.74043 C 331.29934,112.73105 325.59367,119.46661 320.48379,126.71605 C 315.1573,132.35594 311.14198,139.12365 305.8785,144.81745 C 301.87632,150.27178 296.7067,154.68276 293.01985,160.3793 C 289.99337,165.48794 284.53318,168.65495 281.85217,173.92679 C 279.42759,175.91733 277.23021,178.22392 275.13642,180.65618 C 271.30169,184.86985 267.03523,188.44403 261.73471,190.62939 C 259.37358,193.56239 255.70122,193.43419 252.6978,195.49301 C 249.44121,195.74551 246.67924,198.00652 243.26914,197.57283 C 238.84394,199.06731 233.7924,197.91343 229.09969,198.27678 C 225.38507,197.10869 221.15573,197.09405 217.47997,195.28785 C 212.34702,193.42058 207.51052,190.84177 202.78255,188.23781 C 197.53572,183.38091 191.25364,179.24934 187.80324,172.78422 C 182.87493,166.2489 179.76685,158.38583 177.76882,150.51941 C 175.90008,142.0713 175.67876,133.23857 177.56448,124.77359 C 178.71256,118.31033 181.37015,112.08397 184.68158,106.44437 C 188.1479,102.73762 189.98305,97.838513 193.50285,94.387742 C 195.83718,92.267517 197.21568,88.99103 199.94531,86.957985 C 203.56535,81.959525 207.67415,77.389588 211.5148,72.581238 C 214.78671,68.519749 217.9745,64.380168 221.79487,60.793479 C 223.77242,57.657756 226.31161,55.082575 229.05127,52.707481 C 232.4917,47.592198 237.23489,43.604599 241.05565,38.820731 C 244.99347,33.852877 249.91884,29.735682 253.40031,24.371162 C 256.32219,22.557135 259.1511,19.74388 258.25406,16.019854 C 258.25406,10.686962 258.25406,5.3540699 258.25406,0.021178 C 253.53846,4.9042693 249.34125,10.232478 244.77767,15.248696 C 231.96947,30.169656 219.02197,45.1099 205.89352,59.764244 C 201.94857,63.90193 198.76867,68.725457 194.81176,72.837365 C 192.37675,77.181839 188.40318,80.384303 185.66818,84.561496 C 179.71312,90.464528 175.74331,98.041733 171.51976,105.17029 C 167.75005,113.28942 165.18423,121.96595 163.45601,130.72065 C 162.87744,139.77695 162.66486,149.13407 165.23255,157.92175 C 167.93688,166.62709 170.99205,175.53658 177.34916,182.3061 C 181.31183,188.15183 187.01668,192.40098 192.10012,197.11398 C 198.97519,200.7404 205.408,205.5133 213.1934,207.11789 C 217.04575,209.0216 221.22914,209.9945 225.43534,210.33341 C 228.22178,210.92589 231.13151,211.03404 233.95343,211.49168 C 237.88755,212.01621 241.20078,210.49473 245.06593,210.78773 z"
     id="polygon16" />
  <path
     style="fill:#696969;fill-opacity:1;fill-rule:evenodd;stroke:none"
     d="M 238.80717,187.14169 C 241.1085,185.5577 243.85598,185.82594 246.14365,184.16557 C 248.48631,183.89334 250.2831,182.39915 252.41692,181.57416 C 254.52669,181.27813 256.29571,179.33219 258.14722,178.1935 C 260.83461,176.5363 263.19445,174.41962 265.77908,172.62597 C 267.05527,170.76942 268.87261,169.28781 270.49215,167.78219 C 272.65611,164.90092 275.22603,162.08437 277.27214,158.9833 C 281.68081,153.95175 285.97502,148.83408 289.90835,143.4304 C 295.33818,137.01779 300.96344,130.76097 305.8746,123.94402 C 310.1557,119.17864 314.07309,114.12859 317.93229,109.03327 C 323.30172,102.75356 328.78885,96.564533 333.62878,89.870998 C 335.19488,87.984732 337.45905,86.357379 336.71219,83.613258 C 336.71219,77.539428 336.71219,71.465599 336.71219,65.391769 C 331.46139,72.257802 326.13225,79.056351 320.38429,85.507962 C 313.62575,94.492939 305.49667,102.34385 298.97651,111.52513 C 294.39759,117.84168 289.1535,123.61211 284.25382,129.65976 C 282.04875,131.70909 280.28708,134.08019 278.7762,136.66035 C 275.68075,139.06384 274.62223,143.0523 271.44217,145.38516 C 269.81796,149.17097 266.1317,151.3544 264.51282,155.14435 C 261.22396,157.74311 259.90641,161.89007 256.58311,164.46604 C 254.63261,166.09022 252.75065,167.84593 250.24522,168.54812 C 246.36445,170.30714 242.57278,173.0694 238.13658,172.51891 C 235.74611,173.76947 232.66811,173.19116 230.09759,173.0305 C 227.87671,172.02649 225.36147,172.1895 223.11504,171.28035 C 219.71564,169.86995 216.9117,167.66146 214.13134,165.38312 C 211.17107,163.71907 209.40292,160.64126 207.57718,157.92812 C 206.03558,155.27059 204.00006,152.64722 203.84133,149.47703 C 203.47647,147.17583 202.4821,145.1359 202.72345,142.74436 C 201.51637,140.29865 202.02039,137.20274 202.21267,134.57849 C 202.84527,132.34379 203.0576,130.00088 203.42595,127.69996 C 204.17587,125.43899 205.59574,123.34835 205.88504,120.98807 C 209.13553,116.83704 211.8071,112.13518 215.10676,107.93188 C 217.7094,105.56599 219.03381,102.14305 221.70012,99.82103 C 224.56936,95.339692 227.99115,91.309586 231.87781,87.661926 C 236.48154,80.918439 242.90747,75.64316 248.30373,69.580401 C 250.11586,67.050335 252.46481,64.94189 254.29383,62.416619 C 255.95812,60.402408 259.06284,58.984001 258.25406,55.946885 C 258.25406,50.285242 258.25406,44.623599 258.25406,38.961956 C 254.81425,42.268521 251.87458,46.007189 248.85798,49.679386 C 247.48761,52.196062 245.11475,53.711504 243.15683,55.63667 C 239.53408,60.893604 234.87396,65.279849 230.68646,70.073249 C 226.39919,74.369883 221.98251,78.55471 218.20085,83.288161 C 215.71897,85.948816 213.45966,88.805299 210.97232,91.459748 C 206.26157,98.046603 201.00792,104.29 196.59725,111.0613 C 195.24425,114.64654 192.65093,117.51257 190.80967,120.77313 C 189.87224,125.09216 186.66672,128.91319 187.45972,133.57812 C 187.24233,136.22044 186.78199,138.28497 187.45972,140.83221 C 187.04606,143.75253 188.19207,146.43012 188.26522,149.27233 C 190.14977,153.98358 191.72668,158.81194 193.68655,163.49567 C 195.67569,165.08224 195.70532,167.88232 198.06071,169.25458 C 199.0279,171.38521 200.31977,173.47192 202.4013,174.81264 C 204.6878,175.94951 205.89617,178.63183 208.65489,178.98274 C 210.36784,180.59736 212.63513,181.24887 214.50655,182.27811 C 216.54838,182.55667 217.84369,184.53023 220.06279,184.35793 C 221.55855,185.90594 224.05585,185.08968 225.61905,186.43776 C 227.99958,185.96297 229.48805,187.63874 231.87781,187.14169 C 234.1876,187.14169 236.49739,187.14169 238.80717,187.14169 z"
     id="polygon18" />
  <polygon
     points="237.434067,161.383835   238.136581,161.383835 238.807175,160.711884 239.509674,160.711884 240.212189,160.711884   240.914703,160.711884 241.585297,160.007935 242.287811,160.007935 242.990326,159.304001   243.660889,159.304001 244.363419,158.632050 240.914703,158.632050 238.136581,157.224182   236.029037,156.520218 233.250916,155.144348 231.877808,154.440414 229.802200,153.064514   228.397171,151.656631 227.694641,150.280746 226.321564,149.576797 225.619049,148.168930   224.948456,146.793030 224.948456,144.713196 224.948456,143.305328 224.948456,141.929443   224.948456,140.521545 225.619049,139.145676 225.619049,137.737778 226.321564,135.657959   227.024078,134.282074 227.694641,132.874191 229.099686,131.498306 229.802200,129.386490   231.175293,128.010590 231.877808,126.634705 233.250916,124.522881 234.655945,123.146996   235.358444,121.739105 236.731552,120.363220 238.136581,118.955338 240.914703,116.171570   242.990326,113.387802 244.363419,112.011909 245.065933,111.307968 245.768448,110.636024   246.439041,109.228149 247.844055,108.524200 248.546570,107.852257 249.217163,106.444374   249.919678,105.740425 250.622192,104.364540 251.995285,103.660606 252.697800,102.956665   253.400314,101.580780 254.102829,100.876831 255.475922,100.172897 256.178436,98.797005   256.880951,98.093063 258.254059,96.717178 258.254059,95.309296 258.254059,94.637352   258.254059,93.229469 258.254059,91.853577 258.254059,90.445694 258.254059,89.069809   258.254059,87.661926 258.254059,86.957985 258.254059,85.582100 258.254059,84.174217   258.254059,82.798325 258.254059,81.390442 258.254059,80.014557 258.254059,79.310616   258.254059,77.934731 258.254059,76.526848 255.475922,79.310616 253.400314,82.094391   250.622192,84.878159 248.546570,87.661926 246.439041,90.445694 244.363419,92.525528   242.287811,95.309296 240.212189,97.389122 238.136581,100.172897 236.029037,102.284721   233.953430,105.068489 231.877808,107.148315 229.802200,109.228149 227.694641,112.011909   227.024078,112.715858 226.321564,114.091743 224.948456,115.499626 224.245941,116.171570   223.543427,117.579453 222.840927,118.955338 221.467819,120.363220 220.765305,121.067162   220.062790,122.443047 219.392197,123.850929 218.689697,124.522881 217.987183,125.930756   216.614075,128.010590 215.911560,130.090424 215.209045,131.498306 214.506546,133.578125   213.835953,135.657959 213.835953,137.065842 213.133438,139.145676 213.133438,140.521545   213.133438,141.929443 213.133438,143.305328 213.835953,145.385162 213.835953,146.089096   214.506546,147.496979 214.506546,148.872864 215.209045,150.280746 215.911560,151.656631   216.614075,152.360580 217.987183,153.736450 218.689697,154.440414 219.392197,155.144348   220.765305,155.848282 222.170334,157.224182 223.543427,157.928116 224.245941,157.928116   225.619049,158.632050 227.694641,159.304001 229.099686,160.007935 230.472794,160.007935   231.877808,160.711884 233.953430,160.711884 235.358444,161.383835 237.434067,161.383835 "
     style="fill-opacity:1.0; fill-rule:evenodd; fill:dimgray; stroke:none"
     id="polygon20" />
  <polygon
     points="0.015966,395.124481   0.015966,394.420563 0.015966,393.716614 0.015966,393.044647 0.015966,392.340698   0.015966,391.636780 0.015966,390.932831 0.015966,390.260895 24.316595,390.260895   47.914711,390.260895 72.215340,390.260895 96.515968,390.260895 120.816597,390.260895   144.414703,390.260895 168.715332,390.260895 193.015961,390.260895 217.284668,390.260895   240.914703,390.260895 265.183411,390.260895 289.484039,390.260895 313.784668,390.260895   338.085297,390.260895 361.683411,390.260895 385.984039,390.260895 385.984039,390.932831   385.984039,391.636780 385.984039,392.340698 385.984039,393.044647 385.984039,393.716614   385.984039,394.420563 385.984039,395.124481 361.683411,395.124481 338.085297,395.124481   313.784668,395.124481 289.484039,395.124481 265.183411,395.124481 240.914703,395.124481   217.284668,395.124481 193.015961,395.124481 168.715332,395.124481 144.414703,395.124481   120.816597,395.124481 96.515968,395.124481 72.215340,395.124481 47.914711,395.124481   24.316595,395.124481 0.015966,395.124481 "
     style="fill-opacity:1.0; fill-rule:evenodd; fill:darkorange; stroke:none"
     id="polygon74" />
  <path
     style="fill:#008080;fill-opacity:1;fill-rule:evenodd;stroke:none"
     d="M 147.28029,303.72481 C 147.63287,301.56806 148.16896,299.66778 148.65713,297.45456 C 149.84409,292.07322 151.23239,287.29099 154.30457,281.88984 C 155.28386,280.16816 156.10819,278.59985 157.15479,277.05624 C 158.07742,275.69546 158.40106,275.29474 160.18662,273.05068 C 162.18903,270.67938 168.49952,265.14161 170.3583,264.25976 C 172.42227,263.28057 174.54057,262.4144 176.61707,261.47601 C 179.20013,260.30871 183.22923,259.33429 188.54925,258.59947 C 190.02549,258.39557 196.57903,257.88364 197.23653,257.88547 C 200.54678,257.97244 204.68985,258.69138 206.8099,259.03429 C 208.92994,259.3772 215.53279,260.79605 217.06296,261.82497 C 218.72559,262.94296 224.50681,265.95245 226.32156,267.83902 C 227.67459,269.2456 228.97138,270.85365 230.2048,272.40211 C 231.33498,273.82096 235.13535,278.95136 235.94813,280.26505 C 236.68529,281.45651 239.0188,287.36964 239.50967,291.4203 L 224.24594,291.48508 C 224.54672,287.99437 223.0422,284.52984 221.46782,281.72586 C 220.49925,280.00083 219.32293,278.37091 217.58924,277.1582 C 216.42495,275.84905 214.96504,274.98861 213.58117,273.95084 C 211.86738,272.66565 209.62393,271.70361 207.57718,271.29474 C 205.41696,270.8632 203.23334,270.38813 200.88105,270.62277 C 198.95716,270.81467 191.51375,270.51836 188.83281,271.29474 C 186.23403,271.70298 184.79783,272.33794 182.76462,272.95316 C 180.60218,273.915 178.2202,274.64953 176.18768,275.72253 C 173.96602,277.32969 172.52818,278.76674 171.06876,280.77127 C 169.42032,283.14009 167.54901,285.49134 166.34545,288.10707 C 165.27841,290.9818 163.76368,293.67644 163.22903,296.76225 C 162.57245,300.55177 161.0664,316.54132 161.75406,320.69867 C 162.18922,323.32946 162.76775,325.99845 163.31609,328.58383 C 163.92378,331.44904 166.36715,338.16079 167.5598,340.26899 C 169.44525,343.60179 176.02405,348.85538 178.26005,350.09529 C 183.3761,352.93224 186.51461,353.62776 190.80778,354.07187 C 194.66616,354.47101 198.70247,354.31008 202.56068,353.88882 C 204.95082,353.38804 206.49449,352.94273 208.85109,352.05776 C 211.41097,350.5798 213.66866,349.11568 217.28467,345.04865 C 218.70845,343.57938 219.6145,342.21851 220.7653,340.15305 C 221.96376,338.00206 223.39645,336.00451 223.90323,333.53588 C 224.70678,330.64333 225.59882,327.77468 226.32156,324.85831 C 230.7176,324.85831 235.11364,324.85831 239.50967,324.85831 C 239.93668,327.4218 238.56227,329.68543 238.13658,332.11868 C 237.56602,335.37999 236.35624,337.88008 235.59179,340.83722 C 234.87682,343.60297 233.14413,346.04847 231.87781,348.50433 C 230.98341,350.2389 225.87369,355.91348 224.69367,356.98333 C 222.94943,358.56471 220.71066,359.75858 218.6897,361.0473 C 214.75248,363.55798 209.83617,365.20216 205.2166,365.91092 C 203.09151,366.23697 201.73528,366.98091 194.09953,366.93873 C 188.27358,366.98315 184.43627,366.30939 181.90346,365.46608 C 179.86222,364.94785 173.6399,361.88075 170.53617,360.21571 C 164.0613,356.74216 156.06399,347.73494 155.26804,345.91693 C 153.51716,341.91779 151.31821,338.08225 149.97096,333.91357 C 149.17822,331.46066 148.71994,329.56678 148.24204,327.06769 C 147.82175,324.86982 147.46303,322.8784 147.19284,320.69867 C 147.1093,320.02472 146.49605,308.52204 147.28029,303.72481 z"
     id="polygon76"
     sodipodi:nodetypes="cssscsssczssssccscssscccccsssssscccscccssssssccssssss" />
  <path
     style="fill:#ff8c00;fill-opacity:1;fill-rule:evenodd;stroke:none"
     d="M 53.470963,333.91357 C 53.470963,310.72615 53.470963,287.53872 53.470963,264.35129 C 51.50222,263.5309 50.760974,263.80223 48.320443,263.64737 C 46.098942,263.64737 43.877442,263.64737 41.655941,263.64737 L 41.952724,259.48773 C 58.980257,259.48773 76.007791,259.48773 93.035324,259.48773 L 92.332809,263.64737 C 89.215351,263.77971 86.028751,264.08836 83.03106,264.35129 C 80.592272,264.56519 80.202299,265.15531 80.549721,267.31912 C 80.549721,293.92223 80.549721,320.52534 80.549721,347.12845 C 81.226406,348.56629 81.656246,350.05505 82.055323,351.55367 C 82.893591,353.4494 84.741251,354.6387 86.105972,356.15173 C 87.427909,356.64494 93.271491,359.02708 94.92497,358.93549 C 98.123901,358.96394 107.73336,358.87062 109.48619,358.93549 C 111.47391,358.47679 113.50607,357.66618 115.26035,356.85568 C 116.55589,356.25712 121.67042,351.25751 122.39933,349.70216 C 123.0594,348.29372 123.56169,346.73995 124.2653,345.53418 C 125.09876,344.1059 126.26713,337.31652 126.37285,335.28943 C 127.5137,313.41368 126.37285,290.77045 126.37285,268.51096 C 125.90127,266.95861 125.56916,265.84658 124.2425,264.86091 C 123.08592,263.90588 121.17017,263.41369 119.5205,263.64737 C 117.17441,263.64737 114.82832,263.64737 112.48222,263.64737 L 112.77901,259.48773 C 123.78194,259.48773 134.78487,259.48773 145.7878,259.48773 L 145.49101,263.64737 C 142.11995,263.64737 138.74889,263.64737 135.37782,263.64737 C 134.20205,264.13774 133.08771,265.05449 132.59969,265.7272 C 131.67511,267.00168 131.747,268.88107 131.89717,270.69646 C 131.86574,285.83907 131.96002,300.99175 131.84994,316.12805 C 131.97187,322.23832 131.09105,327.99616 131.22659,333.91357 C 131.34159,338.9344 129.36018,345.14257 129.11905,347.12845 C 128.41985,352.88682 120.429,359.4316 118.61927,360.74954 C 117.23552,361.59808 112.67485,365.09901 111.03597,365.54398 C 108.70752,366.17617 99.884066,366.90338 98.373528,366.94792 C 95.401917,367.03555 85.482898,366.41872 83.224896,365.91443 C 81.058224,365.43054 72.735672,361.92724 70.546205,360.91191 C 69.135092,360.21002 67.762281,359.67714 66.391347,358.80744 C 64.952367,357.89458 59.648568,352.76182 58.324703,350.61618 C 57.483797,349.2134 56.791938,347.89602 56.249088,346.53488 C 55.712141,345.18855 55.212705,343.4947 54.844059,342.26486 C 54.239383,340.24761 53.470963,334.84149 53.470963,333.91357 z"
     id="polygon78"
     sodipodi:nodetypes="cccccccsccccccssssccccccccsccsscssscscssc" />
  <path
     style="fill:#008080;fill-opacity:1;fill-rule:evenodd;stroke:none"
     d="M 262.40527,366.8958 L 248.54657,366.8958 L 289.48404,260.15967 L 302.92544,260.28657 L 342.72457,366.8958 L 329.0484,366.8958 C 328.61763,365.54612 327.74318,360.99025 327.07494,359.7418 C 325.96382,358.55089 326.03368,356.96519 325.14638,355.51367 C 323.14426,350.00627 321.69725,344.27265 319.39928,338.89148 C 318.79439,336.89397 317.56447,335.09789 317.96783,332.92633 L 274.92282,332.92633 L 262.40527,366.8958 z M 279.1821,324.00186 L 296.83453,275.50976 L 314.48697,324.00186 L 279.1821,324.00186 z"
     id="path80"
     sodipodi:nodetypes="cccccccccccccccc" />
  <path
     style="font-size:53px;font-style:normal;font-variant:normal;font-weight:normal;font-stretch:normal;text-align:center;line-height:114.99999762000000203%;writing-mode:lr-tb;text-anchor:middle;fill:#696969;fill-opacity:1;stroke:none;stroke-width:1px;stroke-linecap:butt;stroke-linejoin:miter;stroke-opacity:1;font-family:Bitstream Vera Sans;-inkscape-font-specification:Bitstream Vera Sans"
     d="M 72.28499,413.49301 L 77.23166,413.49301 L 77.23166,440.64079 C 77.23162,444.52746 75.87718,447.61912 73.16832,449.91579 C 70.45941,452.21245 66.837743,453.36079 62.303322,453.36079 C 57.729604,453.36079 54.12757,452.22227 51.497211,449.94523 C 48.866835,447.6682 47.551651,444.56672 47.551655,440.64079 L 47.551655,413.49301 L 52.439433,413.49301 L 52.439433,440.64079 C 52.439424,443.44783 53.332571,445.5482 55.118878,446.9419 C 56.92479,448.33561 59.319602,449.03246 62.303322,449.03245 C 65.404781,449.03246 67.838853,448.28653 69.60554,446.79468 C 71.39181,445.30283 72.28496,443.25154 72.28499,440.64079 L 72.28499,413.49301 M 87.201785,425.62801 L 91.265125,425.62801 L 91.265125,430.28024 C 92.501775,428.33693 93.826775,426.94323 95.240125,426.09912 C 96.673075,425.25508 98.429925,424.83304 100.51067,424.83301 C 103.18028,424.83304 105.31009,425.52008 106.90012,426.89412 C 108.49009,428.26822 109.28509,430.10359 109.28512,432.40024 L 109.28512,453.39412 L 104.89789,453.39412 L 104.89789,434.1669 C 104.89787,432.47878 104.37769,431.14396 103.33734,430.16246 C 102.31658,429.181 100.93269,428.69026 99.185675,428.69024 C 96.908625,428.69026 95.083075,429.54415 93.709005,431.2519 C 92.334925,432.9597 91.647895,435.22692 91.647895,438.05357 L 91.647895,453.39412 L 87.201785,453.39412 L 87.201785,425.62801 M 123.04712,414.73357 L 123.04712,420.32801 L 118.60101,420.32801 L 118.60101,414.73357 L 123.04712,414.73357 M 123.07656,425.62801 L 123.07656,453.39412 L 118.6599,453.39412 L 118.6599,425.62801 L 123.07656,425.62801 M 143.74883,453.39412 L 138.89049,453.39412 L 129.14438,425.62801 L 134.12049,425.62801 L 141.54049,448.15301 L 149.40216,425.62801 L 154.37827,425.62801 L 143.74883,453.39412 M 183.79231,439.79078 L 163.29897,439.79078 C 163.33823,441.1845 163.456,442.32302 163.65231,443.20634 C 163.86823,444.08968 164.24119,444.92394 164.7712,445.70912 C 166.3023,448.12357 168.54007,449.33079 171.48453,449.33078 C 175.0571,449.33079 177.47155,447.47579 178.72786,443.76578 L 183.20342,443.76578 C 182.63413,446.76912 181.29932,449.12468 179.19897,450.83245 C 177.11821,452.54023 174.85101,453.39412 171.30786,453.39412 C 167.76471,453.39412 164.31971,452.08875 162.06231,449.47801 C 159.82453,446.84764 158.70564,443.25542 158.70564,438.70134 C 158.70564,434.12765 159.85397,430.47655 162.15064,427.74801 C 164.46693,424.99988 167.55859,423.62581 171.42564,423.62578 C 174.01673,423.62581 176.30358,424.27359 178.2862,425.56912 C 180.2884,426.8647 181.7508,428.65099 182.67342,430.92801 C 183.41932,432.93025 183.79228,435.8845 183.79231,439.79078 M 163.4462,436.16912 L 178.99286,436.16912 C 179.0321,436.11024 179.05173,436.0121 179.05175,435.87467 C 179.05173,433.57802 178.31562,431.64451 176.84342,430.07412 C 175.37118,428.48414 173.54562,427.68914 171.36675,427.68912 C 169.12896,427.68914 167.29359,428.46451 165.86064,430.01523 C 164.42767,431.54636 163.62286,433.59765 163.4462,436.16912 M 203.86121,429.51468 C 202.4086,429.53433 201.18175,429.68156 200.18065,429.95635 C 199.17953,430.21156 198.25694,430.67285 197.41287,431.34024 C 196.58842,432.00766 195.97009,432.97933 195.55787,434.25524 C 195.16527,435.51155 194.96898,437.08192 194.96899,438.96635 L 194.96899,453.39412 L 190.52287,453.39412 L 190.52287,425.62801 L 194.58621,425.62801 L 194.58621,430.63357 C 195.86212,428.57248 197.07916,427.09045 198.23732,426.18746 C 199.41508,425.28452 200.73027,424.83304 202.18287,424.83301 C 202.45767,424.83304 203.01712,424.88212 203.86121,424.98024 L 203.86121,429.51468 M 212.87943,443.91301 C 212.95794,444.52153 213.06591,445.06135 213.20332,445.53245 C 213.34072,445.98394 213.56646,446.46486 213.88054,446.97523 C 214.19461,447.4856 214.57739,447.89782 215.02888,448.21189 C 215.49998,448.52597 216.12813,448.79097 216.91332,449.00689 C 217.6985,449.22282 218.61127,449.33079 219.65165,449.33078 C 221.57534,449.33079 223.1359,448.93819 224.33332,448.15301 C 225.53071,447.3482 226.12941,446.2882 226.12943,444.97301 C 226.12941,443.9719 225.79571,443.1769 225.12832,442.58801 C 224.4609,441.9795 223.35182,441.47894 221.8011,441.08634 L 217.70832,440.11467 C 214.43017,439.3295 212.1335,438.3382 210.81832,437.14078 C 209.52276,435.94339 208.87499,434.26506 208.87499,432.10578 C 208.87499,429.53432 209.84665,427.48303 211.78999,425.95189 C 213.73331,424.40118 216.31461,423.62581 219.53388,423.62578 C 222.75312,423.62581 225.22645,424.36192 226.95388,425.83412 C 228.70089,427.30636 229.58422,429.41655 229.60388,432.16467 L 224.95165,432.16467 C 224.83386,429.18099 222.98868,427.68914 219.4161,427.68912 C 217.61016,427.68914 216.16739,428.07192 215.08777,428.83745 C 214.02776,429.60303 213.49776,430.62377 213.49777,431.89967 C 213.49776,432.86154 213.90017,433.65654 214.70499,434.28467 C 215.50979,434.91284 216.81516,435.44284 218.6211,435.87467 L 222.8611,436.84634 C 225.62886,437.53339 227.63108,438.48543 228.86777,439.70245 C 230.10441,440.9195 230.72274,442.55857 230.72277,444.61967 C 230.72274,447.28931 229.68237,449.41912 227.60165,451.00912 C 225.54052,452.59912 222.76293,453.39412 219.26888,453.39412 C 215.63739,453.39412 212.90887,452.61875 211.08332,451.06801 C 209.25776,449.51727 208.29591,447.13227 208.19777,443.91301 L 212.87943,443.91301 M 242.32292,414.73357 L 242.32292,420.32801 L 237.87681,420.32801 L 237.87681,414.73357 L 242.32292,414.73357 M 242.35237,425.62801 L 242.35237,453.39412 L 237.9357,453.39412 L 237.9357,425.62801 L 242.35237,425.62801 M 274.46355,413.52634 L 274.46355,452.18689 L 270.57688,452.18689 L 270.57688,448.50634 C 269.39909,450.23375 268.10353,451.48023 266.69022,452.24578 C 265.2965,453.01134 263.6378,453.39412 261.71411,453.39412 C 257.98447,453.39412 255.04003,452.03967 252.88077,449.33078 C 250.72151,446.6219 249.64188,442.93153 249.64188,438.25967 C 249.64188,433.82339 250.72151,430.28025 252.88077,427.63023 C 255.04003,424.96063 257.92558,423.62581 261.53744,423.62578 C 265.34557,423.62581 268.20168,425.05877 270.10577,427.92467 L 270.10577,413.52634 L 274.46355,413.52634 M 262.33244,427.74801 C 259.89835,427.74803 257.94521,428.73933 256.473,430.72189 C 255.00077,432.68488 254.26466,435.2858 254.26466,438.52467 C 254.26466,441.76357 255.00077,444.37431 256.473,446.35689 C 257.96484,448.31986 259.9278,449.30134 262.36188,449.30134 C 264.69779,449.30134 266.57242,448.32968 267.98577,446.38634 C 269.39909,444.42338 270.10575,441.83228 270.10577,438.61301 C 270.10575,435.29562 269.39909,432.65543 267.98577,430.69245 C 266.57242,428.72951 264.68798,427.74803 262.33244,427.74801 M 283.9508,432.60634 C 283.99005,431.1734 284.24524,429.90729 284.71635,428.80801 C 285.20709,427.70877 285.80579,426.84507 286.51246,426.21689 C 287.21912,425.56914 288.07301,425.04896 289.07413,424.65634 C 290.07523,424.24414 291.0469,423.96933 291.98913,423.83189 C 292.93134,423.69452 293.94227,423.62581 295.02191,423.62578 C 298.45708,423.62581 301.058,424.27359 302.82469,425.56912 C 304.61096,426.84507 305.50411,428.7197 305.50413,431.19301 L 305.50413,447.53467 C 305.50411,448.22171 305.71022,448.76153 306.12246,449.15412 C 306.53466,449.52708 307.12355,449.71356 307.88913,449.71356 C 308.20318,449.71356 308.50744,449.66449 308.80191,449.56634 L 308.80191,452.92301 C 307.64373,453.23708 306.64262,453.39412 305.79858,453.39412 C 304.36559,453.39412 303.28596,453.06041 302.55969,452.39301 C 301.853,451.74523 301.42115,450.72449 301.26413,449.33078 C 299.71337,450.76375 298.18226,451.7943 296.6708,452.42245 C 295.17893,453.07023 294.08949,453.39412 291.81246,453.39412 C 289.53543,453.39412 286.78727,452.65801 285.15802,451.18578 C 283.52876,449.71356 282.71413,447.71134 282.71413,445.17912 C 282.71413,442.07765 283.79376,439.87913 285.95302,438.58356 C 287.44487,437.68061 289.9869,436.97395 293.57913,436.46356 C 294.08949,436.40469 295.06115,436.2771 296.49413,436.08078 C 298.24115,435.86487 299.44837,435.53117 300.1158,435.07967 C 300.78319,434.62821 301.11689,433.93136 301.11691,432.98912 L 301.11691,431.84078 C 301.11689,430.52562 300.57707,429.50488 299.49746,428.77856 C 298.41782,428.05229 296.88671,427.68914 294.90413,427.68912 C 292.82338,427.68914 291.26282,428.09155 290.22246,428.89634 C 289.18209,429.68155 288.57357,430.91821 288.39691,432.60634 L 283.9508,432.60634 M 292.78413,449.53689 C 295.21819,449.5369 297.2106,448.88912 298.76135,447.59356 C 300.3317,446.29801 301.11689,444.90431 301.11691,443.41245 L 301.11691,438.46578 C 300.35133,438.81913 299.30115,439.11357 297.96635,439.34912 C 296.65115,439.56506 295.41449,439.76135 294.25635,439.93801 C 293.11782,440.11468 291.99893,440.36987 290.89969,440.70356 C 289.82005,441.01765 288.95635,441.53783 288.30858,442.26412 C 287.66079,442.99042 287.3369,443.93264 287.33691,445.09078 C 287.3369,446.48449 287.80801,447.57394 288.75024,448.35912 C 289.71209,449.14431 291.05671,449.5369 292.78413,449.53689 M 338.40986,413.52634 L 338.40986,452.18689 L 334.52319,452.18689 L 334.52319,448.50634 C 333.34539,450.23375 332.04984,451.48023 330.63652,452.24578 C 329.2428,453.01134 328.48708,453.39412 325.66041,453.39412 C 322.83375,453.39412 318.98633,452.03967 316.82708,449.33078 C 314.66782,446.6219 313.58819,442.93153 313.58819,438.25967 C 313.58819,433.82339 314.66782,430.28025 316.82708,427.63023 C 318.98633,424.96063 321.87188,423.62581 325.48375,423.62578 C 329.29188,423.62581 332.14798,425.05877 334.05208,427.92467 L 334.05208,413.52634 L 338.40986,413.52634 M 326.27875,427.74801 C 323.84466,427.74803 321.89151,428.73933 320.4193,430.72189 C 318.94707,432.68488 318.21096,435.2858 318.21097,438.52467 C 318.21096,441.76357 318.94707,444.37431 320.4193,446.35689 C 321.91114,448.31986 323.8741,449.30134 326.30819,449.30134 C 328.6441,449.30134 330.51873,448.32968 331.93208,446.38634 C 333.34539,444.42338 334.05206,441.83228 334.05208,438.61301 C 334.05206,435.29562 333.34539,432.65543 331.93208,430.69245 C 330.51873,428.72951 328.63428,427.74803 326.27875,427.74801 M 109.7233,470.05154 L 109.7233,508.71209 L 105.83664,508.71209 L 105.83664,505.03154 C 104.65884,506.75895 103.36328,508.00543 101.94997,508.77098 C 100.55625,509.53654 98.897545,509.91931 96.973855,509.91932 C 93.244215,509.91931 90.299775,508.56487 88.140525,505.85598 C 85.981265,503.1471 84.901635,499.45673 84.901635,494.78487 C 84.901635,490.34859 85.981265,486.80545 88.140525,484.15543 C 90.299775,481.48582 93.185325,480.15101 96.797185,480.15098 C 100.60532,480.15101 103.46143,481.58397 105.36553,484.44987 L 105.36553,470.05154 L 109.7233,470.05154 M 97.592185,484.2732 C 95.158105,484.27323 93.204955,485.26452 91.732745,487.24709 C 90.260515,489.21008 89.524405,491.811 89.524415,495.04987 C 89.524405,498.28877 90.260515,500.89951 91.732745,502.88209 C 93.224585,504.84506 95.187545,505.82654 97.621635,505.82654 C 99.957545,505.82654 101.83218,504.85488 103.24553,502.91154 C 104.65884,500.94858 105.36551,498.35747 105.36553,495.1382 C 105.36551,491.82081 104.65884,489.18063 103.24553,487.21765 C 101.83218,485.25471 99.947725,484.27323 97.592185,484.2732 M 141.98339,496.31598 L 121.49006,496.31598 C 121.52931,497.7097 121.64709,498.84821 121.84339,499.73154 C 122.05931,500.61488 122.43227,501.44914 122.96228,502.23432 C 124.49338,504.64876 126.73116,505.85599 129.67562,505.85598 C 133.24819,505.85599 135.66263,504.00099 136.91895,500.29098 L 141.3945,500.29098 C 140.82522,503.29432 139.49041,505.64987 137.39006,507.35765 C 135.3093,509.06543 132.67893,509.91931 129.49895,509.91932 C 125.59264,509.91931 122.51079,508.61395 120.25339,506.0032 C 118.01561,503.37284 116.89672,499.78062 116.89673,495.22654 C 116.89672,490.65285 118.04506,487.00174 120.34173,484.2732 C 122.65802,481.52508 125.74968,480.15101 129.61673,480.15098 C 132.20782,480.15101 134.49467,480.79879 136.47728,482.09432 C 138.47948,483.3899 139.94189,485.17619 140.8645,487.4532 C 141.6104,489.45545 141.98337,492.4097 141.98339,496.31598 M 121.63728,492.69432 L 137.18395,492.69432 C 137.22319,492.63544 137.24282,492.53729 137.24284,492.39987 C 137.24282,490.10322 136.5067,488.16971 135.0345,486.59932 C 133.56226,485.00934 131.73671,484.21434 129.55784,484.21432 C 127.32005,484.21434 125.48468,484.98971 124.05173,486.54043 C 122.61876,488.07156 121.81394,490.12285 121.63728,492.69432 M 163.78691,489.8382 C 163.7869,488.62119 163.86542,487.40415 164.02246,486.18709 C 164.17949,484.95045 164.44449,483.6549 164.81746,482.30043 C 165.21005,480.92638 165.70079,479.64064 166.28968,478.4432 C 166.87857,477.2262 167.63431,476.05824 168.55691,474.93932 C 169.49912,473.82046 170.55912,472.86843 171.73691,472.0832 C 172.9343,471.27843 174.35745,470.64046 176.00635,470.16932 C 177.67485,469.67861 179.49059,469.43324 181.45357,469.4332 C 189.87465,469.43324 194.84095,473.6438 196.35246,482.06487 L 191.28802,482.06487 C 190.73836,479.27749 189.62928,477.20657 187.96079,475.85209 C 186.29225,474.47805 183.92688,473.79102 180.86468,473.79098 C 177.13504,473.79102 174.18078,475.22398 172.00191,478.08987 C 169.82301,480.9362 168.73356,484.83267 168.73357,489.77932 C 168.73356,494.62785 169.86227,498.47525 172.11968,501.32154 C 174.39671,504.16784 177.44911,505.59099 181.27691,505.59098 C 184.45688,505.59099 186.89095,504.69784 188.57913,502.91154 C 190.28688,501.10562 191.44502,498.33784 192.05357,494.6082 L 197.14746,494.6082 C 195.95002,504.81562 190.65002,509.91931 181.24746,509.91932 C 179.00967,509.91931 176.96819,509.60524 175.12302,508.97709 C 173.27782,508.36858 171.73689,507.53432 170.50024,506.47432 C 169.26356,505.39469 168.19375,504.19728 167.29079,502.88209 C 166.38783,501.54729 165.69097,500.10451 165.20024,498.55376 C 164.70949,497.00303 164.34635,495.521 164.11079,494.10765 C 163.89487,492.6747 163.7869,491.25156 163.78691,489.8382 M 215.78014,469.55098 L 221.78681,469.55098 L 213.8957,477.3832 L 210.7157,477.3832 L 215.78014,469.55098 M 203.23681,489.13154 C 203.27606,487.6986 203.53125,486.43249 204.00236,485.3332 C 204.4931,484.23397 205.0918,483.37027 205.79848,482.74209 C 206.50514,482.09434 207.35902,481.57416 208.36014,481.18154 C 209.36124,480.76934 210.33291,480.49453 211.27514,480.35709 C 212.21735,480.21971 213.22828,480.15101 214.30792,480.15098 C 217.74309,480.15101 220.34401,480.79879 222.1107,482.09432 C 223.89697,483.37027 224.79012,485.24489 224.79014,487.7182 L 224.79014,504.05987 C 224.79012,504.74691 224.99623,505.28673 225.40848,505.67932 C 225.82067,506.05228 226.40956,506.23876 227.17514,506.23876 C 227.48919,506.23876 227.79345,506.18969 228.08792,506.09154 L 228.08792,509.4482 C 226.92974,509.76228 225.92863,509.91931 225.08459,509.91932 C 223.6516,509.91931 222.57197,509.58561 221.8457,508.9182 C 221.13901,508.27043 220.70716,507.24969 220.55014,505.85598 C 218.99938,507.28895 217.46827,508.3195 215.95681,508.94765 C 214.46494,509.59543 212.8455,509.91931 211.09848,509.91932 C 208.29143,509.91931 206.07328,509.1832 204.44403,507.71098 C 202.81477,506.23876 202.00014,504.23654 202.00014,501.70432 C 202.00014,498.60284 203.07977,496.40433 205.23903,495.10876 C 206.73088,494.20581 209.27291,493.49915 212.86514,492.98876 C 213.3755,492.92989 214.34716,492.80229 215.78014,492.60598 C 217.52716,492.39007 218.73438,492.05637 219.40181,491.60487 C 220.0692,491.15341 220.4029,490.45656 220.40292,489.51432 L 220.40292,488.36598 C 220.4029,487.05082 219.86308,486.03008 218.78348,485.30376 C 217.70383,484.57749 216.17272,484.21434 214.19014,484.21432 C 212.10939,484.21434 210.54883,484.61675 209.50848,485.42154 C 208.4681,486.20675 207.85958,487.44341 207.68292,489.13154 L 203.23681,489.13154 M 212.07014,506.06209 C 214.5042,506.0621 216.49661,505.41432 218.04736,504.11876 C 219.61771,502.82321 220.4029,501.42951 220.40292,499.93765 L 220.40292,494.99098 C 219.63734,495.34433 218.58716,495.63877 217.25236,495.87432 C 215.93716,496.09025 214.7005,496.28655 213.54236,496.4632 C 212.40383,496.63988 211.28495,496.89507 210.1857,497.22876 C 209.10606,497.54285 208.24236,498.06303 207.59459,498.78932 C 206.9468,499.51562 206.62291,500.45784 206.62292,501.61598 C 206.62291,503.00969 207.09402,504.09914 208.03625,504.88432 C 208.9981,505.6695 210.34272,506.0621 212.07014,506.06209 M 259.24135,470.05154 L 259.24135,508.71209 L 255.35468,508.71209 L 255.35468,505.03154 C 254.17688,506.75895 252.88133,508.00543 251.46801,508.77098 C 250.07429,509.53654 248.41559,509.91931 246.4919,509.91932 C 242.76226,509.91931 239.81782,508.56487 237.65857,505.85598 C 235.49931,503.1471 234.41968,499.45673 234.41968,494.78487 C 234.41968,490.34859 235.49931,486.80545 237.65857,484.15543 C 239.81782,481.48582 242.70337,480.15101 246.31524,480.15098 C 250.12337,480.15101 252.97948,481.58397 254.88357,484.44987 L 254.88357,470.05154 L 259.24135,470.05154 M 247.11024,484.2732 C 244.67615,484.27323 242.723,485.26452 241.25079,487.24709 C 239.77856,489.21008 239.04245,491.811 239.04246,495.04987 C 239.04245,498.28877 239.77856,500.89951 241.25079,502.88209 C 242.74263,504.84506 244.70559,505.82654 247.13968,505.82654 C 249.47559,505.82654 251.35022,504.85488 252.76357,502.91154 C 254.17688,500.94858 254.88355,498.35747 254.88357,495.1382 C 254.88355,491.82081 254.17688,489.18063 252.76357,487.21765 C 251.35022,485.25471 249.46578,484.27323 247.11024,484.2732 M 273.85203,471.25877 L 273.85203,476.85321 L 269.40592,476.85321 L 269.40592,471.25877 L 273.85203,471.25877 M 273.88147,482.15321 L 273.88147,509.91932 L 269.46481,509.91932 L 269.46481,482.15321 L 273.88147,482.15321 M 301.17003,482.15321 L 301.17003,486.06932 L 284.71059,506.03266 L 301.93559,506.03266 L 301.93559,509.91932 L 279.32225,509.91932 L 279.32225,505.97377 L 295.92892,486.03988 L 280.47059,486.03988 L 280.47059,482.15321 L 301.17003,482.15321"
     id="text2473"
     sodipodi:nodetypes="cccssscccccscccccccsscccccssccccccccccccccccccccccccccsccczcssscccccscscccccccccccccscccssssscsccccscscccscssccsscsscccccccccccccccccssscscccccscscsscccccsscccssccsscccsscccsccssccccccccscssccccccczsscscccccscscssccccccssscscccccscscsscccccscccscssscccccscscccscccscscccscscssccscccscccccccccccsscccssccssccssscccsccssccccccccscsscccccccssscscccccscscsscccccccccccccccccccccc" />
</svg>
